<?xml version="1.0" encoding="UTF-8" standalone="no"?>
<!DOCTYPE svg PUBLIC "-//W3C//DTD SVG 1.1//EN" "http://www.w3.org/Graphics/SVG/1.1/DTD/svg11.dtd">
<svg xmlns="http://www.w3.org/2000/svg" version="1.1" viewBox="0.00 0.00 1447.00 1448.00">
<path fill="#000000" d="
  M 797.25 1023.87
  Q 849.27 972.91 917.51 946.24
  Q 973.99 924.16 1034.72 918.26
  Q 1066.81 915.14 1099.25 915.76
  Q 1143.46 916.62 1184.42 927.56
  C 1236.14 941.38 1285.18 967.47 1322.73 1005.44
  Q 1383.49 1066.87 1386.33 1155.18
  Q 1387.12 1179.50 1386.00 1205.02
  Q 1384.79 1232.81 1378.03 1257.96
  Q 1365.20 1305.73 1331.13 1343.61
  C 1298.57 1379.81 1255.59 1404.87 1209.98 1421.04
  Q 1201.37 1424.08 1191.02 1427.40
  Q 1140.69 1443.50 1088.31 1446.94
  Q 1058.89 1448.87 1028.27 1446.89
  C 976.94 1443.56 923.71 1430.25 876.75 1407.88
  Q 846.43 1393.44 822.68 1375.88
  Q 782.83 1346.43 754.93 1316.70
  Q 738.71 1299.41 721.43 1280.83
  Q 718.74 1277.94 716.06 1280.83
  Q 701.38 1296.68 685.65 1313.41
  Q 647.10 1354.42 602.04 1384.49
  Q 578.78 1400.01 550.58 1412.21
  Q 476.25 1444.38 394.08 1447.18
  Q 351.53 1448.64 310.70 1442.07
  Q 258.67 1433.70 209.08 1413.18
  C 167.02 1395.78 129.02 1370.29 100.31 1335.50
  Q 64.08 1291.63 54.98 1234.15
  Q 52.47 1218.33 51.83 1201.34
  Q 50.77 1173.43 51.83 1149.96
  C 53.79 1106.33 67.85 1064.25 94.15 1029.38
  C 146.51 959.98 234.55 921.70 319.75 916.08
  C 343.97 914.49 369.18 915.02 394.14 916.96
  C 481.27 923.74 565.64 954.95 630.92 1013.99
  Q 633.84 1016.63 636.55 1019.50
  Q 637.54 1020.55 637.54 1019.10
  Q 637.52 905.42 637.54 791.80
  Q 637.54 785.21 636.46 783.08
  Q 634.63 779.49 631.11 778.23
  Q 628.89 777.44 624.69 777.41
  C 572.37 777.05 521.22 776.80 471.00 776.55
  Q 338.62 775.89 206.25 775.21
  Q 199.92 775.18 196.81 781.07
  C 195.11 784.30 196.37 787.54 195.34 790.85
  C 192.28 800.75 180.37 803.16 172.80 796.61
  Q 131.35 760.72 84.25 720.11
  C 79.01 715.59 78.91 706.27 84.08 701.74
  Q 126.84 664.27 169.54 626.60
  Q 172.69 623.82 175.46 623.09
  C 183.00 621.11 191.30 625.13 192.68 633.24
  C 193.10 635.71 192.66 638.20 193.76 640.53
  C 195.96 645.22 199.84 646.74 205.04 646.74
  Q 416.39 646.80 627.75 646.69
  Q 632.59 646.69 635.09 645.34
  Q 640.25 642.56 640.12 635.68
  Q 638.97 571.34 637.70 508.49
  C 637.58 502.65 632.47 498.74 626.95 498.74
  Q 493.29 498.81 359.59 498.74
  C 353.98 498.74 348.93 502.76 348.89 508.62
  C 348.83 518.06 340.08 524.04 331.27 521.42
  Q 328.67 520.65 324.26 516.93
  Q 279.64 479.34 235.01 441.74
  C 228.83 436.52 229.40 427.35 235.34 422.27
  Q 276.27 387.27 318.05 351.26
  Q 324.02 346.11 326.51 344.85
  C 335.42 340.31 346.43 346.87 346.02 357.39
  C 345.80 363.18 350.28 368.01 356.16 368.01
  Q 496.38 368.05 629.03 368.03
  C 633.15 368.03 637.48 365.45 638.78 361.54
  Q 639.51 359.38 639.48 355.04
  Q 638.96 278.36 638.32 205.25
  Q 637.92 160.02 637.72 112.75
  Q 637.70 109.32 637.61 105.76
  C 637.47 100.73 635.76 97.32 631.22 95.46
  C 628.05 94.15 624.71 95.05 621.59 93.83
  Q 613.82 90.80 612.94 82.67
  C 612.50 78.59 614.53 74.20 617.76 71.78
  Q 660.77 39.65 708.31 4.10
  C 713.98 -0.14 720.28 -1.28 726.24 3.04
  Q 773.99 37.71 820.01 71.45
  C 828.58 77.74 826.34 90.43 816.59 93.86
  C 813.13 95.08 809.66 94.01 806.32 95.24
  Q 799.26 97.85 799.25 105.61
  Q 799.18 222.58 799.23 354.36
  Q 799.23 360.12 800.25 362.20
  C 802.19 366.13 806.11 368.05 810.39 368.05
  Q 942.78 368.04 1080.34 368.04
  C 1084.49 368.04 1088.48 365.59 1090.10 361.77
  C 1091.41 358.66 1090.37 355.47 1091.31 352.40
  C 1094.16 343.09 1105.95 339.77 1113.36 346.17
  Q 1157.37 384.16 1201.79 422.49
  C 1206.11 426.21 1207.64 432.14 1205.33 437.31
  Q 1204.18 439.90 1200.26 443.28
  Q 1157.79 479.96 1114.36 517.46
  Q 1111.12 520.25 1108.41 521.04
  C 1099.66 523.58 1091.13 517.77 1090.85 508.55
  C 1090.70 503.52 1086.32 498.84 1081.18 498.83
  Q 948.85 498.67 809.86 498.80
  C 803.55 498.81 799.23 503.37 799.23 509.80
  Q 799.21 574.27 799.24 635.52
  Q 799.24 642.60 804.38 645.35
  Q 806.96 646.72 809.73 646.72
  Q 1020.03 646.76 1230.73 646.72
  C 1234.78 646.72 1238.37 644.40 1240.14 640.70
  C 1241.20 638.47 1240.79 636.25 1241.27 633.90
  Q 1242.64 627.25 1249.22 624.58
  C 1254.99 622.23 1260.02 623.77 1264.53 627.58
  Q 1308.62 664.88 1351.81 701.31
  C 1358.18 706.68 1357.88 715.59 1351.59 721.05
  Q 1307.59 759.25 1264.00 797.18
  Q 1257.97 802.42 1250.44 800.23
  C 1245.10 798.69 1241.03 793.89 1241.00 788.16
  C 1240.96 780.20 1235.12 777.30 1228.09 777.30
  Q 1017.20 777.42 810.51 777.33
  C 805.98 777.33 801.51 779.65 799.87 783.99
  Q 799.19 785.79 799.14 790.09
  Q 798.47 851.26 798.04 910.00
  Q 798.03 912.41 798.00 914.74
  Q 797.34 968.39 796.77 1023.66
  Q 796.76 1024.35 797.25 1023.87
  Z
  M 1269.78 1121.05
  Q 1264.26 1105.52 1254.01 1087.93
  C 1222.23 1033.38 1164.22 1008.03 1103.28 1002.76
  Q 1083.03 1001.01 1065.00 1001.05
  Q 1023.84 1001.14 983.21 1011.41
  Q 929.95 1024.88 886.63 1056.79
  Q 862.38 1074.65 839.63 1094.09
  Q 832.17 1100.46 824.61 1107.61
  Q 811.65 1119.85 797.66 1133.26
  Q 787.25 1143.23 777.59 1154.32
  C 775.81 1156.37 773.82 1158.98 772.63 1161.40
  Q 768.45 1169.95 773.62 1179.16
  Q 777.44 1185.98 783.21 1192.77
  Q 791.61 1202.65 802.01 1213.58
  Q 817.63 1230.01 833.39 1246.00
  C 850.97 1263.84 870.43 1279.27 890.62 1293.70
  C 918.76 1313.80 949.24 1328.36 982.91 1337.18
  Q 1037.78 1351.55 1095.64 1346.51
  Q 1118.06 1344.55 1138.25 1340.68
  C 1169.72 1334.65 1200.51 1321.44 1225.04 1300.27
  Q 1253.92 1275.34 1267.09 1237.87
  C 1270.53 1228.11 1273.65 1217.32 1275.76 1206.77
  Q 1284.60 1162.72 1269.78 1121.05
  Z
  M 168.89 1118.96
  C 156.41 1151.08 155.13 1185.77 164.06 1219.46
  Q 167.24 1231.45 170.93 1241.55
  C 191.47 1297.81 240.55 1330.64 298.34 1342.15
  Q 313.11 1345.10 331.04 1347.12
  C 387.14 1353.47 443.81 1346.86 494.94 1324.87
  Q 523.42 1312.62 550.88 1292.34
  Q 570.29 1278.01 584.19 1266.15
  Q 591.92 1259.55 599.33 1252.17
  Q 620.68 1230.91 643.71 1206.21
  Q 650.18 1199.26 656.58 1191.32
  C 664.02 1182.07 671.10 1171.23 662.62 1159.78
  Q 658.27 1153.90 654.18 1149.67
  C 640.65 1135.67 626.01 1121.84 611.58 1108.21
  C 595.14 1092.70 578.44 1079.55 559.55 1064.99
  C 533.39 1044.82 505.46 1029.16 473.79 1018.85
  Q 419.89 1001.29 361.65 1002.79
  C 323.67 1003.76 285.98 1009.26 251.84 1026.31
  C 224.09 1040.17 201.19 1060.23 185.40 1086.07
  Q 175.16 1102.82 168.89 1118.96
  Z"
/>
<path fill="#000000" d="
  M 0.00 715.97
  L 1.83 716.15
  Q 2.36 716.21 2.57 716.70
  Q 2.73 717.06 2.64 717.45
  Q 2.54 717.97 2.02 718.08
  Q 0.94 718.30 0.00 717.91
  L 0.00 715.97
  Z"
/>
</svg>
