<?xml version="1.0" encoding="UTF-8" standalone="no"?>
<!DOCTYPE svg PUBLIC "-//W3C//DTD SVG 1.1//EN" "http://www.w3.org/Graphics/SVG/1.1/DTD/svg11.dtd">
<svg xmlns="http://www.w3.org/2000/svg" version="1.1" viewBox="446.00 0.00 1068.00 1068.00">
<g stroke-width="2.00" fill="none" stroke-linecap="butt">
<path stroke="#806d00" vector-effect="non-scaling-stroke" d="
  M 53.61 0.00
  L 978.87 533.91
  Q 978.93 533.95 978.99 533.91
  Q 979.12 533.84 979.16 533.72
  Q 979.17 533.66 979.13 533.61
  L 445.61 0.00"
/>
<path stroke="#806d00" vector-effect="non-scaling-stroke" d="
  M 671.62 0.00
  Q 673.33 2.64 674.90 5.36
  Q 826.95 268.80 978.61 531.59
  Q 979.85 533.73 979.59 531.27
  Q 979.52 530.64 979.07 528.96
  Q 908.24 264.42 837.42 0.00"
/>
<path stroke="#806d00" vector-effect="non-scaling-stroke" d="
  M 980.84 0.00
  L 980.98 532.05
  Q 980.98 532.55 980.56 532.81
  Q 980.24 533.01 980.37 533.39
  Q 980.53 533.86 980.32 534.30
  L 979.79 535.44
  Q 979.69 535.65 979.81 535.84
  Q 979.89 535.98 980.02 535.99
  Q 980.80 536.06 980.59 536.82
  L 838.13 1068.00"
/>
<path stroke="#806d00" vector-effect="non-scaling-stroke" d="
  M 673.00 1068.00
  Q 673.64 1067.66 674.45 1066.25
  Q 826.60 802.77 978.67 539.24
  Q 978.97 538.71 979.14 538.13
  Q 979.29 537.57 979.76 537.31
  Q 980.42 536.93 979.71 536.65
  Q 979.59 536.60 979.53 536.49
  Q 979.21 535.86 978.94 536.51
  Q 978.75 536.94 978.33 536.55
  A 0.99 0.98 59.3 0 0 977.40 536.31
  L 0.00 798.27"
/>
<path stroke="#806d00" vector-effect="non-scaling-stroke" d="
  M 0.00 535.42
  Q 486.87 535.43 973.75 535.30
  Q 976.00 535.30 977.11 535.23
  Q 979.61 535.07 977.19 534.42
  L 0.00 272.53"
/>
<path stroke="#806d00" vector-effect="non-scaling-stroke" d="
  M 1124.28 0.00
  Q 1053.11 265.57 982.01 531.25
  Q 981.81 532.00 982.17 532.39
  Q 982.55 532.81 982.83 532.32
  L 1289.99 0.00"
/>
<path stroke="#806d00" vector-effect="non-scaling-stroke" d="
  M 1515.12 0.00
  L 1515.40 0.22
  Q 1515.67 0.44 1515.43 0.69
  L 982.93 533.47
  Q 982.42 533.97 981.94 533.45
  Q 981.66 533.15 981.30 533.31
  Q 980.42 533.72 981.26 534.21
  Q 981.83 534.54 982.12 535.14
  A 0.62 0.61 61.7 0 1 981.88 535.95
  Q 981.74 536.02 981.60 536.07
  Q 981.16 536.22 981.62 536.12
  Q 981.78 536.09 981.92 536.19
  Q 982.29 536.44 981.99 536.77
  Q 980.84 538.02 980.84 539.00
  Q 980.80 803.50 980.82 1068.00"
/>
<path stroke="#806d00" vector-effect="non-scaling-stroke" d="
  M 1907.75 0.00
  L 984.13 533.56
  Q 983.43 533.96 984.24 534.03
  Q 985.72 534.14 987.76 533.59
  Q 1222.64 470.56 1960.00 273.05"
/>
<path stroke="#806d00" vector-effect="non-scaling-stroke" d="
  M 1960.00 535.44
  L 983.13 535.23
  Q 982.64 535.23 982.48 535.69
  Q 982.41 535.89 982.51 536.15
  Q 982.59 536.34 982.79 536.29
  Q 982.92 536.26 983.04 536.23
  Q 983.49 536.14 983.94 536.26
  L 1960.00 797.85"
/>
<path stroke="#806d00" vector-effect="non-scaling-stroke" d="
  M 1904.12 1068.00
  Q 1900.98 1066.75 1895.46 1063.56
  Q 1440.00 800.55 984.51 537.58
  Q 983.99 537.28 983.36 537.40
  Q 982.87 537.49 983.22 537.84
  L 1512.77 1067.46
  Q 1513.01 1067.70 1513.32 1067.80
  Q 1513.62 1067.89 1513.63 1068.00"
/>
<path stroke="#806d00" vector-effect="non-scaling-stroke" d="
  M 1288.30 1068.00
  L 982.28 537.88
  Q 982.20 537.75 982.18 537.90
  Q 981.96 539.80 982.49 541.77
  Q 1053.06 804.84 1123.51 1068.00"
/>
<path stroke="#806d00" vector-effect="non-scaling-stroke" d="
  M 447.75 1068.00
  Q 447.89 1067.90 448.11 1067.84
  Q 448.55 1067.73 448.87 1067.41
  Q 711.19 804.95 972.56 543.59
  Q 975.58 540.56 978.90 537.81
  Q 979.11 537.63 978.95 537.40
  L 978.79 537.17
  Q 978.47 536.73 978.00 537.00
  L 58.01 1068.00"
/>
</g>
<path fill="#000000" d="
  M 0.00 0.00
  L 53.61 0.00
  L 978.87 533.91
  Q 978.93 533.95 978.99 533.91
  Q 979.12 533.84 979.16 533.72
  Q 979.17 533.66 979.13 533.61
  L 445.61 0.00
  L 671.62 0.00
  Q 673.33 2.64 674.90 5.36
  Q 826.95 268.80 978.61 531.59
  Q 979.85 533.73 979.59 531.27
  Q 979.52 530.64 979.07 528.96
  Q 908.24 264.42 837.42 0.00
  L 980.84 0.00
  L 980.98 532.05
  Q 980.98 532.55 980.56 532.81
  Q 980.24 533.01 980.37 533.39
  Q 980.53 533.86 980.32 534.30
  L 979.79 535.44
  Q 979.69 535.65 979.81 535.84
  Q 979.89 535.98 980.02 535.99
  Q 980.80 536.06 980.59 536.82
  L 838.13 1068.00
  L 673.00 1068.00
  Q 673.64 1067.66 674.45 1066.25
  Q 826.60 802.77 978.67 539.24
  Q 978.97 538.71 979.14 538.13
  Q 979.29 537.57 979.76 537.31
  Q 980.42 536.93 979.71 536.65
  Q 979.59 536.60 979.53 536.49
  Q 979.21 535.86 978.94 536.51
  Q 978.75 536.94 978.33 536.55
  A 0.99 0.98 59.3 0 0 977.40 536.31
  L 0.00 798.27
  L 0.00 535.42
  Q 486.87 535.43 973.75 535.30
  Q 976.00 535.30 977.11 535.23
  Q 979.61 535.07 977.19 534.42
  L 0.00 272.53
  L 0.00 0.00
  Z"
/>
<path fill="#ffd900" d="
  M 53.61 0.00
  L 445.61 0.00
  L 979.13 533.61
  Q 979.17 533.66 979.16 533.72
  Q 979.12 533.84 978.99 533.91
  Q 978.93 533.95 978.87 533.91
  L 53.61 0.00
  Z"
/>
<path fill="#ffd900" d="
  M 671.62 0.00
  L 837.42 0.00
  Q 908.24 264.42 979.07 528.96
  Q 979.52 530.64 979.59 531.27
  Q 979.85 533.73 978.61 531.59
  Q 826.95 268.80 674.90 5.36
  Q 673.33 2.64 671.62 0.00
  Z"
/>
<path fill="#ffd900" d="
  M 980.84 0.00
  L 1124.28 0.00
  Q 1053.11 265.57 982.01 531.25
  Q 981.81 532.00 982.17 532.39
  Q 982.55 532.81 982.83 532.32
  L 1289.99 0.00
  L 1515.12 0.00
  L 1515.40 0.22
  Q 1515.67 0.44 1515.43 0.69
  L 982.93 533.47
  Q 982.42 533.97 981.94 533.45
  Q 981.66 533.15 981.30 533.31
  Q 980.42 533.72 981.26 534.21
  Q 981.83 534.54 982.12 535.14
  A 0.62 0.61 61.7 0 1 981.88 535.95
  Q 981.74 536.02 981.60 536.07
  Q 981.16 536.22 981.62 536.12
  Q 981.78 536.09 981.92 536.19
  Q 982.29 536.44 981.99 536.77
  Q 980.84 538.02 980.84 539.00
  Q 980.80 803.50 980.82 1068.00
  L 838.13 1068.00
  L 980.59 536.82
  Q 980.80 536.06 980.02 535.99
  Q 979.89 535.98 979.81 535.84
  Q 979.69 535.65 979.79 535.44
  L 980.32 534.30
  Q 980.53 533.86 980.37 533.39
  Q 980.24 533.01 980.56 532.81
  Q 980.98 532.55 980.98 532.05
  L 980.84 0.00
  Z"
/>
<path fill="#000000" d="
  M 1124.28 0.00
  L 1289.99 0.00
  L 982.83 532.32
  Q 982.55 532.81 982.17 532.39
  Q 981.81 532.00 982.01 531.25
  Q 1053.11 265.57 1124.28 0.00
  Z"
/>
<path fill="#000000" d="
  M 1515.12 0.00
  L 1907.75 0.00
  L 984.13 533.56
  Q 983.43 533.96 984.24 534.03
  Q 985.72 534.14 987.76 533.59
  Q 1222.64 470.56 1960.00 273.05
  L 1960.00 535.44
  L 983.13 535.23
  Q 982.64 535.23 982.48 535.69
  Q 982.41 535.89 982.51 536.15
  Q 982.59 536.34 982.79 536.29
  Q 982.92 536.26 983.04 536.23
  Q 983.49 536.14 983.94 536.26
  L 1960.00 797.85
  L 1960.00 1068.00
  L 1904.12 1068.00
  Q 1900.98 1066.75 1895.46 1063.56
  Q 1440.00 800.55 984.51 537.58
  Q 983.99 537.28 983.36 537.40
  Q 982.87 537.49 983.22 537.84
  L 1512.77 1067.46
  Q 1513.01 1067.70 1513.32 1067.80
  Q 1513.62 1067.89 1513.63 1068.00
  L 1288.30 1068.00
  L 982.28 537.88
  Q 982.20 537.75 982.18 537.90
  Q 981.96 539.80 982.49 541.77
  Q 1053.06 804.84 1123.51 1068.00
  L 980.82 1068.00
  Q 980.80 803.50 980.84 539.00
  Q 980.84 538.02 981.99 536.77
  Q 982.29 536.44 981.92 536.19
  Q 981.78 536.09 981.62 536.12
  Q 981.16 536.22 981.60 536.07
  Q 981.74 536.02 981.88 535.95
  A 0.62 0.61 61.7 0 0 982.12 535.14
  Q 981.83 534.54 981.26 534.21
  Q 980.42 533.72 981.30 533.31
  Q 981.66 533.15 981.94 533.45
  Q 982.42 533.97 982.93 533.47
  L 1515.43 0.69
  Q 1515.67 0.44 1515.40 0.22
  L 1515.12 0.00
  Z"
/>
<path fill="#ffd900" d="
  M 1907.75 0.00
  L 1960.00 0.00
  L 1960.00 273.05
  Q 1222.64 470.56 987.76 533.59
  Q 985.72 534.14 984.24 534.03
  Q 983.43 533.96 984.13 533.56
  L 1907.75 0.00
  Z"
/>
<path fill="#ffd900" d="
  M 0.00 272.53
  L 977.19 534.42
  Q 979.61 535.07 977.11 535.23
  Q 976.00 535.30 973.75 535.30
  Q 486.87 535.43 0.00 535.42
  L 0.00 272.53
  Z"
/>
<path fill="#ffd900" d="
  M 1960.00 535.44
  L 1960.00 797.85
  L 983.94 536.26
  Q 983.49 536.14 983.04 536.23
  Q 982.92 536.26 982.79 536.29
  Q 982.59 536.34 982.51 536.15
  Q 982.41 535.89 982.48 535.69
  Q 982.64 535.23 983.13 535.23
  L 1960.00 535.44
  Z"
/>
<path fill="#ffd900" d="
  M 673.00 1068.00
  L 447.75 1068.00
  Q 447.89 1067.90 448.11 1067.84
  Q 448.55 1067.73 448.87 1067.41
  Q 711.19 804.95 972.56 543.59
  Q 975.58 540.56 978.90 537.81
  Q 979.11 537.63 978.95 537.40
  L 978.79 537.17
  Q 978.47 536.73 978.00 537.00
  L 58.01 1068.00
  L 0.00 1068.00
  L 0.00 798.27
  L 977.40 536.31
  A 0.99 0.98 59.3 0 1 978.33 536.55
  Q 978.75 536.94 978.94 536.51
  Q 979.21 535.86 979.53 536.49
  Q 979.59 536.60 979.71 536.65
  Q 980.42 536.93 979.76 537.31
  Q 979.29 537.57 979.14 538.13
  Q 978.97 538.71 978.67 539.24
  Q 826.60 802.77 674.45 1066.25
  Q 673.64 1067.66 673.00 1068.00
  Z"
/>
<path fill="#000000" d="
  M 447.75 1068.00
  L 58.01 1068.00
  L 978.00 537.00
  Q 978.47 536.73 978.79 537.17
  L 978.95 537.40
  Q 979.11 537.63 978.90 537.81
  Q 975.58 540.56 972.56 543.59
  Q 711.19 804.95 448.87 1067.41
  Q 448.55 1067.73 448.11 1067.84
  Q 447.89 1067.90 447.75 1068.00
  Z"
/>
<path fill="#ffd900" d="
  M 1904.12 1068.00
  L 1513.63 1068.00
  Q 1513.62 1067.89 1513.32 1067.80
  Q 1513.01 1067.70 1512.77 1067.46
  L 983.22 537.84
  Q 982.87 537.49 983.36 537.40
  Q 983.99 537.28 984.51 537.58
  Q 1440.00 800.55 1895.46 1063.56
  Q 1900.98 1066.75 1904.12 1068.00
  Z"
/>
<path fill="#ffd900" d="
  M 1288.30 1068.00
  L 1123.51 1068.00
  Q 1053.06 804.84 982.49 541.77
  Q 981.96 539.80 982.18 537.90
  Q 982.20 537.75 982.28 537.88
  L 1288.30 1068.00
  Z"
/>
</svg>
